<svg width="31" height="30" viewBox="0 0 31 30" fill="none" xmlns="http://www.w3.org/2000/svg">
<path d="M20.5106 4.9998C20.5106 4.66833 20.3777 4.35044 20.1413 4.11606C19.9048 3.88167 19.5842 3.75 19.2498 3.75H11.6838C11.3495 3.75 11.0288 3.88167 10.7923 4.11606C10.5559 4.35044 10.4231 4.66833 10.4231 4.9998V8.7498H20.5106V4.9998ZM26.8157 25.0002V10.0002C26.8158 9.83602 26.7832 9.67344 26.7199 9.52174C26.6566 9.37004 26.5637 9.23219 26.4466 9.11607C26.3296 8.99995 26.1905 8.90784 26.0375 8.84499C25.8845 8.78215 25.7205 8.7498 25.5549 8.7498H5.37871C5.21309 8.7498 5.04909 8.78215 4.89608 8.84499C4.74308 8.90784 4.60406 8.99995 4.48698 9.11607C4.3699 9.23219 4.27704 9.37004 4.21372 9.52174C4.15039 9.67344 4.11784 9.83602 4.11792 10.0002V25.0002C4.11792 25.3317 4.25075 25.6496 4.4872 25.8839C4.72364 26.1183 5.04432 26.25 5.37871 26.25H25.5549C25.8893 26.25 26.21 26.1183 26.4464 25.8839C26.6829 25.6496 26.8157 25.3317 26.8157 25.0002Z" stroke="#E7E6E6" stroke-width="1.6" stroke-linecap="round" stroke-linejoin="round"/>
<path d="M14.206 17.5002H11.2298C10.2511 17.4919 9.29603 17.2015 8.48102 16.6643C7.66601 16.1271 7.02633 15.3664 6.64005 14.475L4.34485 9.28736C4.46057 9.12166 4.61506 8.98621 4.79509 8.89259C4.97513 8.79897 5.17535 8.74996 5.37866 8.74976H25.5549C25.7582 8.74996 25.9584 8.79897 26.1384 8.89259C26.3185 8.98621 26.4729 9.12166 26.5887 9.28736L24.2935 14.475C23.9072 15.3664 23.2675 16.1271 22.4525 16.6643C21.6375 17.2015 20.6824 17.4919 19.7037 17.5002H16.7275" stroke="#E7E6E6" stroke-width="1.6" stroke-linecap="round" stroke-linejoin="round"/>
<path d="M16.7276 16.2498H14.2061V18.75H16.7276V16.2498Z" stroke="#E7E6E6" stroke-width="1.6" stroke-linecap="round" stroke-linejoin="round"/>
</svg>
