<svg width="31" height="30" viewBox="0 0 31 30" fill="none" xmlns="http://www.w3.org/2000/svg">
<path d="M20.5106 4.9998C20.5106 4.66833 20.3777 4.35044 20.1413 4.11606C19.9049 3.88167 19.5842 3.75 19.2498 3.75H11.6839C11.3495 3.75 11.0288 3.88167 10.7924 4.11606C10.5559 4.35044 10.4231 4.66833 10.4231 4.9998V8.7498H20.5106V4.9998ZM26.8157 25.0002V10.0002C26.8158 9.83602 26.7832 9.67344 26.7199 9.52174C26.6566 9.37004 26.5637 9.23219 26.4467 9.11607C26.3296 8.99995 26.1906 8.90784 26.0376 8.84499C25.8845 8.78215 25.7205 8.7498 25.5549 8.7498H5.37872C5.2131 8.7498 5.04911 8.78215 4.8961 8.84499C4.7431 8.90784 4.60408 8.99995 4.487 9.11607C4.36992 9.23219 4.27706 9.37004 4.21373 9.52174C4.15041 9.67344 4.11786 9.83602 4.11794 10.0002V25.0002C4.11794 25.3317 4.25077 25.6496 4.48721 25.8839C4.72366 26.1183 5.04434 26.25 5.37872 26.25H25.5549C25.8893 26.25 26.21 26.1183 26.4464 25.8839C26.6829 25.6496 26.8157 25.3317 26.8157 25.0002Z" stroke="#FF4646" stroke-width="1.6" stroke-linecap="round" stroke-linejoin="round"/>
<path d="M14.206 17.5002H11.2299C10.2512 17.4919 9.2961 17.2015 8.48108 16.6643C7.66607 16.1271 7.0264 15.3664 6.64011 14.475L4.34491 9.28736C4.46064 9.12166 4.61512 8.98621 4.79516 8.89259C4.97519 8.79897 5.17542 8.74996 5.37872 8.74976H25.5549C25.7582 8.74996 25.9585 8.79897 26.1385 8.89259C26.3185 8.98621 26.473 9.12166 26.5887 9.28736L24.2935 14.475C23.9073 15.3664 23.2676 16.1271 22.4526 16.6643C21.6376 17.2015 20.6824 17.4919 19.7037 17.5002H16.7276" stroke="#FF0000" stroke-width="1.6" stroke-linecap="round" stroke-linejoin="round"/>
<path d="M16.7276 16.2498H14.206V18.75H16.7276V16.2498Z" stroke="#FF4646" stroke-width="1.6" stroke-linecap="round" stroke-linejoin="round"/>
</svg>
