<svg width="100" height="100" viewBox="0 0 100 100" fill="none" xmlns="http://www.w3.org/2000/svg">
<g clip-path="url(#clip0_58_218)">
<path d="M76.5625 0H23.4375C10.4933 0 0 10.4933 0 23.4375V76.5625C0 89.5067 10.4933 100 23.4375 100H76.5625C89.5067 100 100 89.5067 100 76.5625V23.4375C100 10.4933 89.5067 0 76.5625 0Z" fill="#330000"/>
<path d="M48.3332 59.5051H32.8332L29.6664 69.2969C29.5832 69.6719 29.25 69.9219 28.875 69.8801H21.0414C20.5832 69.8801 20.4582 69.6301 20.5832 69.1301L34 30.5051C34.125 30.0887 34.25 29.6301 34.4164 29.1301C34.5832 28.2551 34.6664 27.3387 34.6664 26.4219C34.625 26.2137 34.7914 26.0051 35 25.9637H45.7914C46.125 25.9637 46.2914 26.0887 46.3332 26.2969L61.5414 69.2137C61.6664 69.6719 61.5414 69.8801 61.125 69.8801H52.4164C52.125 69.9219 51.8332 69.7137 51.75 69.4219L48.3332 59.5051ZM35.25 51.0469H45.8332C45.5832 50.1719 45.25 49.1301 44.875 48.0469C44.5 46.9219 44.125 45.7137 43.75 44.4637C43.3332 43.1719 42.9582 41.9219 42.5414 40.6301C42.125 39.3387 41.75 38.1301 41.4164 36.9219C41.0832 35.7555 40.7914 34.6719 40.5 33.6719H40.4164C40.0414 35.4637 39.5832 37.2555 39 39.0469C38.375 41.0469 37.75 43.1301 37.0832 45.2137C36.5451 47.1803 35.9336 49.126 35.25 51.0469ZM70.8332 33.2551C69.4582 33.2969 68.125 32.7551 67.125 31.7969C66.1668 30.7551 65.6668 29.3801 65.7082 27.9637C65.6668 26.5469 66.2082 25.2137 67.2082 24.2551C68.2082 23.2969 69.5418 22.7969 70.9168 22.7969C72.5418 22.7969 73.7918 23.2969 74.7082 24.2551C75.6316 25.2653 76.1249 26.5957 76.0832 27.9637C76.125 29.3801 75.625 30.7551 74.625 31.7969C73.6668 32.7969 72.25 33.3387 70.8332 33.2551ZM66.1668 69.4219V37.3387C66.1668 36.9219 66.3332 36.7551 66.7082 36.7551H74.9582C75.3332 36.7551 75.5 36.9637 75.5 37.3387V69.4219C75.5 69.8801 75.3332 70.0887 74.9582 70.0887H66.7918C66.375 70.0887 66.1668 69.8387 66.1668 69.4219Z" fill="#FF9A00"/>
</g>
<rect x="0.5" y="0.5" width="99" height="99" rx="19.5" stroke="white"/>
<defs>
<clipPath id="clip0_58_218">
<rect width="100" height="100" rx="20" fill="white"/>
</clipPath>
</defs>
</svg>
