<svg width="100" height="100" viewBox="0 0 100 100" fill="none" xmlns="http://www.w3.org/2000/svg">
<rect x="0.5" y="0.5" width="99" height="99" rx="19.5" fill="#242938"/>
<rect x="0.5" y="0.5" width="99" height="99" rx="19.5" stroke="white"/>
<path d="M50 90C72.0914 90 90 72.0914 90 50C90 27.9086 72.0914 10 50 10C27.9086 10 10 27.9086 10 50C10 72.0914 27.9086 90 50 90Z" fill="url(#paint0_linear_58_57)"/>
<path d="M67.8494 46.0937C67.9236 46.0105 67.9731 45.906 67.9917 45.7933C68.0104 45.6805 67.9973 45.5644 67.9542 45.4595C67.9111 45.3545 67.8398 45.2653 67.7493 45.2028C67.6587 45.1404 67.5528 45.1076 67.4448 45.1084H50.5226C49.4899 45.1084 49.659 44.5197 50.0274 43.8031C50.3958 43.0801 59.7567 24.9917 59.7567 24.9917C59.799 24.8957 59.8231 24.7997 59.8231 24.691C59.8229 24.5547 59.7847 24.4215 59.7133 24.3082C59.642 24.1948 59.5406 24.1063 59.4219 24.0537C59.3033 24.0011 59.1726 23.9867 59.0463 24.0124C58.92 24.0382 58.8037 24.1028 58.7119 24.1983L32.1812 52.2106C32.0664 52.3258 32 52.4794 32 52.6585C32 52.9976 32.2597 53.2728 32.5798 53.2728H50.6796C51.815 53.2728 51.4104 53.9638 51.1326 54.3669C50.8548 54.77 37.1515 74.8419 37.1515 74.8419C37.075 74.9491 37.0283 75.0767 37.0165 75.2105C37.0047 75.3443 37.0284 75.4789 37.0848 75.5992C37.1413 75.7196 37.2283 75.8208 37.3361 75.8916C37.4439 75.9624 37.5682 75.9999 37.6951 76C37.8823 76 38.0514 75.9232 38.1722 75.7952C38.293 75.6673 67.8434 46.1193 67.8434 46.1193L67.8494 46.1129L67.8615 46.1001L67.8494 46.0937Z" fill="white"/>
<defs>
<linearGradient id="paint0_linear_58_57" x1="50" y1="10" x2="50" y2="90" gradientUnits="userSpaceOnUse">
<stop stop-color="#7ACBD4"/>
<stop offset="1" stop-color="#29C6B7"/>
</linearGradient>
</defs>
</svg>
