<svg width="100" height="100" viewBox="0 0 100 100" fill="none" xmlns="http://www.w3.org/2000/svg">
<rect x="0.5" y="0.5" width="99" height="99" rx="19.5" fill="#242938"/>
<rect x="0.5" y="0.5" width="99" height="99" rx="19.5" stroke="white"/>
<path d="M78.7601 69.6858C78.7601 72.6382 77.1759 73.3209 77.1759 73.3209C77.1759 73.3209 50.438 88.7565 48.6236 89.6609C47.7208 90.113 46.8092 90.113 45.9064 89.6609C45.9064 89.6609 18.0357 73.3209 17.1329 72.6382C16.6815 72.186 16.2301 71.5033 16 70.8207V37.2274C16 35.6404 17.8144 34.7272 17.8144 34.7272L45.6852 18.6089C46.8181 18.1567 47.9509 18.1567 49.0838 18.6089C49.0838 18.6089 73.7772 32.9097 76.5032 34.4967C78.0875 35.1794 78.9991 36.7664 78.769 38.5839C78.7601 38.1406 78.7601 66.7334 78.7601 69.6858ZM67.6525 37.458C61.9881 34.2839 48.3935 26.34 48.3935 26.34C47.712 25.8878 46.5791 25.8878 45.6763 26.34L23.7001 39.045C23.7001 39.045 22.1158 39.9493 22.1158 41.0841V67.4161C22.1158 67.8683 22.5672 68.551 22.7973 69.0031C23.4788 69.4553 45.455 82.1691 45.455 82.1691C46.1366 82.6213 47.0393 82.6213 47.7208 82.1691C49.0838 81.4864 69.9272 69.2336 69.9272 69.2336C69.9272 69.2336 71.0601 68.7815 71.0601 66.5118V59.9332L46.5879 74.9167V69.2425C46.5879 67.6555 47.2694 66.5207 48.4023 65.1553L70.3786 51.9804C70.8299 51.2978 71.2813 50.1629 71.2813 49.2586V43.3538L46.5879 58.3374V52.211C46.5879 50.8456 47.0393 49.4891 48.1722 48.8064L67.6525 37.458ZM85.7787 16.5786C85.7787 16.1264 85.3273 15.8959 85.0972 15.8959H79.8842V10.4522C79.8842 10 79.4328 10 78.9814 10L76.2643 10.4522C75.8129 10.4522 75.8129 10.6827 75.8129 10.9043V15.8959H70.8299C70.3786 15.8959 70.3786 16.348 70.1484 16.348V19.7526H76.2643V25.4268C76.2643 25.879 76.7156 25.879 77.167 25.879L79.8842 25.4268C80.3356 25.4268 80.3356 25.1963 80.3356 24.9746V19.9831H86L85.7787 16.5786Z" fill="white"/>
</svg>
