<svg width="100" height="100" viewBox="0 0 100 100" fill="none" xmlns="http://www.w3.org/2000/svg">
<g clip-path="url(#clip0_58_169)">
<path d="M76.5625 0H23.4375C10.4933 0 0 10.4933 0 23.4375V76.5625C0 89.5067 10.4933 100 23.4375 100H76.5625C89.5067 100 100 89.5067 100 76.5625V23.4375C100 10.4933 89.5067 0 76.5625 0Z" fill="#242938"/>
<path d="M56.6148 14.868L78.402 14.8438L41.8492 51.3773L32.323 60.8504L21.4844 49.9984L56.6148 14.868ZM56.4121 47.4879C56.6949 47.1145 57.2152 47.2988 57.6102 47.2508L78.3832 47.2559L59.4508 66.1699L48.5559 55.3418L56.4121 47.4879Z" fill="#44D1FD"/>
<path d="M37.6957 66.1883L48.5558 55.3418L59.4508 66.1699L59.4961 66.218L48.5586 77.0539L37.6957 66.1883Z" fill="#1FBCFD"/>
<path d="M48.5586 77.054L59.4961 66.218L78.391 85.1317C71.2738 85.1477 64.159 85.1262 57.0445 85.1422C56.6391 85.2329 56.3883 84.8622 56.1293 84.6329L48.5586 77.054Z" fill="#08589C"/>
</g>
<rect x="0.5" y="0.5" width="99" height="99" rx="19.5" stroke="white"/>
<defs>
<clipPath id="clip0_58_169">
<rect width="100" height="100" rx="20" fill="white"/>
</clipPath>
</defs>
</svg>
