<svg width="100" height="100" viewBox="0 0 100 100" fill="none" xmlns="http://www.w3.org/2000/svg">
<g clip-path="url(#clip0_58_179)">
<path d="M76.5625 0H23.4375C10.4933 0 0 10.4933 0 23.4375V76.5625C0 89.5067 10.4933 100 23.4375 100H76.5625C89.5067 100 100 89.5067 100 76.5625V23.4375C100 10.4933 89.5067 0 76.5625 0Z" fill="#023430"/>
<path d="M66.8645 42.0277C62.7484 23.8711 54.1703 19.0375 51.982 15.6207C51.0796 14.1155 50.2802 12.5508 49.5895 10.9375C49.4738 12.5508 49.2613 13.5664 47.8902 14.7898C45.1375 17.2441 33.4461 26.7715 32.4621 47.4016C31.5453 66.6367 46.6027 78.4973 48.5918 79.7234C50.1215 80.4762 51.9844 79.7395 52.8934 79.0484C60.1516 74.0672 70.0688 60.7867 66.8723 42.0277" fill="#10AA50"/>
<path d="M50.2129 69.4808C49.834 74.2418 49.5625 77.0082 48.6 79.7289C48.6 79.7289 49.2316 84.2613 49.6754 89.0625H51.2453C51.6198 85.6814 52.1916 82.3252 52.9578 79.0109C50.9254 78.0109 50.291 73.6586 50.2129 69.4808Z" fill="#B8C4C2"/>
<path d="M52.9551 79.0136C50.9012 78.0648 50.307 73.6207 50.2156 69.4808C50.7234 62.6516 50.8715 55.8003 50.6594 48.9554C50.5516 45.364 50.7101 15.6906 49.7746 11.3461C50.4147 12.8175 51.1521 14.2446 51.982 15.6179C54.1703 19.0375 62.7512 23.8711 66.8644 42.0277C70.0687 60.7547 60.2055 74 52.9551 79.0136Z" fill="#12924F"/>
</g>
<rect x="0.5" y="0.5" width="99" height="99" rx="19.5" stroke="white"/>
<defs>
<clipPath id="clip0_58_179">
<rect width="100" height="100" rx="20" fill="white"/>
</clipPath>
</defs>
</svg>
