<svg width="100" height="100" viewBox="0 0 100 100" fill="none" xmlns="http://www.w3.org/2000/svg">
<g clip-path="url(#clip0_58_42)">
<rect width="100" height="100" rx="20" fill="#242938"/>
<path d="M76.5625 0H23.4375C10.4933 0 0 10.4933 0 23.4375V76.5625C0 89.5067 10.4933 100 23.4375 100H76.5625C89.5067 100 100 89.5067 100 76.5625V23.4375C100 10.4933 89.5067 0 76.5625 0Z" fill="#242938"/>
<mask id="mask0_58_42" style="mask-type:luminance" maskUnits="userSpaceOnUse" x="14" y="14" width="72" height="72">
<path d="M14.8438 14.8438H85.1562V85.1562H14.8438V14.8438Z" fill="white"/>
</mask>
<g mask="url(#mask0_58_42)">
<path fill-rule="evenodd" clip-rule="evenodd" d="M79.6098 69.6133C75.7856 69.5071 72.8188 69.8989 70.3324 70.9449C69.6164 71.2324 68.4676 71.2324 68.3731 72.1336C68.7559 72.5117 68.802 73.1305 69.1375 73.6547C69.7106 74.6059 70.716 75.8871 71.6238 76.552L74.684 78.7387C76.5488 79.8781 78.6528 80.5442 80.4696 81.6848C81.5219 82.3504 82.5735 83.2059 83.6258 83.9196C84.1617 84.2996 84.4863 84.9188 85.1563 85.1551V85.0114C84.8219 84.5852 84.7254 83.9676 84.3922 83.4903L82.9559 82.1129C81.5703 80.2598 79.8477 78.6426 77.9828 77.3133C76.4524 76.2676 73.1063 74.8422 72.4844 73.0848L72.3903 72.9781C73.4406 72.8719 74.684 72.502 75.6891 72.2168C77.316 71.7906 78.7973 71.8844 80.4696 71.4571L82.7664 70.7914V70.3653C81.9055 69.5102 81.284 68.3692 80.3762 67.5621C77.9379 65.4711 75.2582 63.427 72.4844 61.7164C71.0024 60.7664 69.0891 60.1473 67.5113 59.341C66.936 59.0555 65.9809 58.9129 65.6465 58.4379C64.7836 57.3942 64.3067 56.0145 63.6852 54.7781L59.7645 46.5094C58.9039 44.6559 58.3766 42.8024 57.3262 41.0918C52.4 33.0125 47.0434 28.1184 38.8184 23.3176C37.05 22.3196 34.9461 21.8903 32.709 21.3684L29.1231 21.177C28.3567 20.8446 27.5922 19.941 26.9227 19.5129C24.1969 17.802 17.1672 14.0957 15.157 18.9805C13.866 22.0692 17.0707 25.1102 18.1586 26.6793C18.9731 27.7723 20.0235 29.0074 20.5988 30.2434C20.9203 31.0508 21.0277 31.9071 21.3633 32.7625C22.1274 34.8531 22.8453 37.1828 23.8496 39.1321C24.3856 40.1301 24.9485 41.177 25.618 42.0793C26.0008 42.6117 26.6707 42.8399 26.8133 43.6949C26.1434 44.6461 26.0973 46.0703 25.7145 47.2602C23.9922 52.6305 24.6621 59.2836 27.1004 63.2375C27.8668 64.425 29.6727 67.0399 32.1231 66.041C34.275 65.1856 33.7949 62.477 34.4164 60.1004C34.561 59.5309 34.4649 59.1504 34.7508 58.7692V58.8758L36.7121 62.8199C38.1945 65.1485 40.7778 67.5727 42.9285 69.1895C44.0754 70.0449 44.9844 71.5192 46.4184 72.041V71.8973H46.3242C46.0367 71.4711 45.6059 71.2793 45.2235 70.9469C44.3629 70.0918 43.4067 69.0457 42.7367 68.0957C40.7293 65.4348 38.961 62.4875 37.382 59.4465C36.616 57.9735 35.9461 56.3574 35.3266 54.8844C35.0371 54.3137 35.0371 53.4571 34.5602 53.1739C33.8418 54.2176 32.7918 55.1231 32.2633 56.4055C31.3543 58.4485 31.2602 60.9676 30.9258 63.5817C30.7328 63.6293 30.8184 63.5817 30.7328 63.6879C29.2043 63.309 28.677 61.7387 28.1039 60.4094C26.6695 57.0352 26.4293 51.6176 27.6727 47.7203C28.007 46.7223 29.4434 43.5856 28.8699 42.6352C28.5809 41.7321 27.6266 41.2102 27.0992 40.4965C26.4777 39.5934 25.8102 38.4535 25.3793 37.4555C24.2324 34.7926 23.659 31.8473 22.4145 29.186C21.8391 27.95 20.836 26.6664 20.0223 25.527C19.1133 24.2434 18.1113 23.3399 17.3934 21.8199C17.1543 21.2875 16.8199 20.4418 17.2024 19.8707C17.2969 19.4906 17.4895 19.3383 17.8703 19.2531C18.4914 18.7203 20.2625 19.3957 20.884 19.6789C22.6524 20.3926 24.1348 21.0574 25.6172 22.0543C26.2871 22.5293 27.0051 23.4328 27.8656 23.6715H28.8711C30.4016 24.0035 32.1219 23.7778 33.5547 24.2039C36.0899 25.0133 38.3844 26.2 40.4422 27.4844C46.7059 31.4289 51.8719 37.0367 55.3613 43.7387C55.9348 44.8317 56.1738 45.8297 56.7012 46.9703C57.7067 49.3 58.95 51.6754 59.952 53.9578C60.9574 56.1914 61.9133 58.4742 63.3477 60.3274C64.0656 61.3254 66.9336 61.8473 68.2242 62.3703C69.1813 62.7965 70.6625 63.1801 71.5254 63.702C73.15 64.7 74.7762 65.8406 76.3055 66.9336C77.0695 67.5024 79.4621 68.691 79.6043 69.6391L79.6098 69.6133ZM30.843 28.3153C30.1825 28.3095 29.524 28.3893 28.884 28.5528V28.6594H28.9781C29.361 29.4199 30.0309 29.943 30.5086 30.6086L31.6094 32.8899L31.7039 32.7836C32.3735 32.3086 32.709 31.5481 32.709 30.4086C32.4219 30.0762 32.3746 29.7426 32.1356 29.4102C31.8485 28.9352 31.227 28.6965 30.843 28.3176V28.3153Z" fill="white"/>
</g>
</g>
<rect x="0.5" y="0.5" width="99" height="99" rx="19.5" stroke="white"/>
<defs>
<clipPath id="clip0_58_42">
<rect width="100" height="100" rx="20" fill="white"/>
</clipPath>
</defs>
</svg>
