<svg width="100" height="100" viewBox="0 0 100 100" fill="none" xmlns="http://www.w3.org/2000/svg">
<rect x="0.5" y="0.5" width="99" height="99" rx="19.5" fill="#242938"/>
<rect x="0.5" y="0.5" width="99" height="99" rx="19.5" stroke="white"/>
<mask id="mask0_58_105" style="mask-type:luminance" maskUnits="userSpaceOnUse" x="5" y="5" width="90" height="90">
<path d="M5 5H95V95H5V5Z" fill="white"/>
</mask>
<g mask="url(#mask0_58_105)">
<path d="M73.9062 5H26.0938C14.444 5 5 14.444 5 26.0938V73.9062C5 85.556 14.444 95 26.0938 95H73.9062C85.556 95 95 85.556 95 73.9062V26.0938C95 14.444 85.556 5 73.9062 5Z" fill="#242938"/>
<mask id="mask1_58_105" style="mask-type:luminance" maskUnits="userSpaceOnUse" x="23" y="10" width="54" height="80">
<path d="M23.6328 10.625H76.3672V89.375H23.6328V10.625Z" fill="white"/>
</mask>
<g mask="url(#mask1_58_105)">
<path fill-rule="evenodd" clip-rule="evenodd" d="M47.7019 48.8673C53.0379 43.79 51.4108 37.5118 46.5797 29.9043C41.7488 22.2972 32.0222 19.592 30.2074 21.3188C28.3923 23.0457 27.9883 35.3901 32.8195 42.9976C37.65 50.6047 42.3655 53.9445 47.7019 48.8673Z" fill="url(#paint0_linear_58_105)"/>
<path fill-rule="evenodd" clip-rule="evenodd" d="M52.3147 49.5721C56.2606 55.7856 61.5372 53.5127 68.0693 47.2974C74.6017 41.0822 77.3115 29.1783 75.9696 27.065C74.6273 24.9518 64.426 25.059 57.894 31.2743C51.362 37.4896 48.3688 43.3585 52.3147 49.5721Z" fill="url(#paint1_linear_58_105)"/>
<path fill-rule="evenodd" clip-rule="evenodd" d="M50.1561 46.1535C56.7078 46.9561 59.2855 40.9085 60.4885 31.1341C61.6912 21.3596 56.7405 11.0292 54.5119 10.7564C52.2837 10.4833 44.7955 19.2896 43.5928 29.0644C42.3897 38.8389 43.604 45.3505 50.1561 46.1535Z" fill="url(#paint2_linear_58_105)"/>
<path fill-rule="evenodd" clip-rule="evenodd" d="M48.508 89.375C62.2484 89.375 73.3916 85.3886 73.3916 67.3109C73.3916 49.2332 62.2484 34.3987 48.508 34.3987C34.7671 34.3987 23.6328 49.2332 23.6328 67.3109C23.6328 85.3886 34.7671 89.375 48.508 89.375Z" fill="url(#paint3_linear_58_105)"/>
<path d="M61.076 63.6202C63.0388 63.6202 64.6299 62.8812 64.6299 61.9693C64.6299 61.0577 63.0388 60.3183 61.076 60.3183C59.1129 60.3183 57.5217 61.0577 57.5217 61.9693C57.5217 62.8812 59.1129 63.6202 61.076 63.6202ZM34.7552 62.6172C36.7036 62.8562 38.3731 62.3162 38.4842 61.4113C38.5957 60.5064 37.1065 59.579 35.1585 59.3399C33.2097 59.1012 31.5402 59.6412 31.4291 60.5461C31.3176 61.4511 32.8072 62.3785 34.7552 62.6172Z" fill="#EAADCC"/>
<path d="M50.7847 61.3846C49.7152 62.253 48.4795 62.607 47.0782 62.447C45.6768 62.2871 44.638 61.7063 43.9619 60.704" stroke="black" stroke-width="2.34375" stroke-linecap="round" stroke-linejoin="round"/>
<path fill-rule="evenodd" clip-rule="evenodd" d="M37.02 52.7927C38.0008 52.7586 38.9029 53.1246 39.5681 53.7444C39.9098 54.0617 40.1855 54.4435 40.3791 54.8678C40.5727 55.2921 40.6805 55.7505 40.6963 56.2166C40.7131 56.6826 40.6376 57.1474 40.4741 57.5841C40.3106 58.0208 40.0623 58.4208 39.7435 58.7612C39.4254 59.1026 39.0431 59.3779 38.6183 59.5713C38.1936 59.7646 37.7349 59.8722 37.2685 59.888C36.8021 59.9048 36.3369 59.8294 35.8996 59.6661C35.4623 59.5028 35.0616 59.2548 34.7204 58.9363C34.3787 58.6189 34.1032 58.2371 33.9096 57.8128C33.716 57.3885 33.6083 56.9302 33.5926 56.4641C33.5757 55.998 33.6511 55.5333 33.8146 55.0965C33.978 54.6597 34.2263 54.2596 34.545 53.9191C34.8631 53.5777 35.2455 53.3025 35.6702 53.1092C36.0949 52.9159 36.5536 52.8083 37.02 52.7927Z" fill="black"/>
<path fill-rule="evenodd" clip-rule="evenodd" d="M37.2066 55.76C37.196 55.4533 37.0639 55.1634 36.8395 54.954C36.615 54.7447 36.3166 54.6331 36.0099 54.6438C35.7032 54.6544 35.4133 54.7865 35.204 55.011C34.9946 55.2354 34.883 55.5338 34.8937 55.8405C34.8991 55.9923 34.9343 56.1415 34.9974 56.2797C35.0605 56.4179 35.1502 56.5423 35.2614 56.6458C35.3725 56.7493 35.503 56.8299 35.6453 56.883C35.7876 56.9361 35.939 56.9607 36.0908 56.9553C36.3972 56.9447 36.6869 56.8128 36.8962 56.5886C37.1054 56.3645 37.2171 56.0664 37.2066 55.76Z" fill="white"/>
<path fill-rule="evenodd" clip-rule="evenodd" d="M58.5553 53.6938C59.5362 53.6597 60.4379 54.0257 61.1031 54.6452C61.4449 54.9624 61.7206 55.3442 61.9142 55.7685C62.1078 56.1928 62.2156 56.6512 62.2312 57.1174C62.2482 57.5834 62.1727 58.0482 62.0093 58.485C61.8458 58.9218 61.5976 59.3219 61.2789 59.6623C60.9608 60.0038 60.5784 60.2792 60.1536 60.4725C59.7288 60.6658 59.27 60.7733 58.8035 60.7887C58.3371 60.8056 57.8719 60.7303 57.4347 60.567C56.9975 60.4037 56.5968 60.1556 56.2557 59.837C55.914 59.5197 55.6384 59.1379 55.4448 58.7136C55.2512 58.2893 55.1434 57.831 55.1276 57.3649C55.1107 56.8989 55.1861 56.4341 55.3496 55.9974C55.513 55.5607 55.7612 55.1606 56.0799 54.8202C56.3981 54.4788 56.7805 54.2035 57.2053 54.0102C57.6301 53.8169 58.0889 53.7094 58.5553 53.6938Z" fill="black"/>
<path d="M40.2005 56.2339C40.2596 57.92 38.9391 59.3343 37.2509 59.393C35.5634 59.4518 34.1473 58.1327 34.0883 56.4466C34.0292 54.7605 35.3493 53.3465 37.0372 53.2878C38.7254 53.2291 40.1415 54.5478 40.2005 56.2339ZM41.1916 56.1994C41.1135 53.9667 39.2379 52.2198 37.0024 52.2978C34.7671 52.3755 33.0188 54.2483 33.0972 56.481C33.1752 58.7138 35.0505 60.4607 37.2857 60.383C39.5213 60.3053 41.27 58.4322 41.1916 56.1994ZM61.7355 57.135C61.7945 58.821 60.4744 60.2354 58.7866 60.2941C57.0987 60.3528 55.6823 59.0337 55.6232 57.3476C55.5642 55.6616 56.8846 54.2472 58.5725 54.1885C60.2603 54.1298 61.6764 55.4489 61.7355 57.135ZM62.7269 57.1005C62.6485 54.8677 60.7733 53.1208 58.5377 53.1985C56.3024 53.2766 54.5538 55.1493 54.6322 57.3821C54.7102 59.6149 56.5858 61.3618 58.821 61.2841C61.0566 61.206 62.8049 59.3333 62.7269 57.1005Z" fill="white" stroke="white" stroke-width="1.17188"/>
<path fill-rule="evenodd" clip-rule="evenodd" d="M58.7416 56.6609C58.7307 56.3544 58.5985 56.0648 58.3741 55.8557C58.1497 55.6467 57.8514 55.5353 57.5449 55.5461C57.3914 55.5489 57.2401 55.5821 57.0996 55.644C56.9591 55.7058 56.8324 55.795 56.7268 55.9064C56.6212 56.0177 56.5388 56.149 56.4844 56.2925C56.4301 56.436 56.4048 56.5889 56.4102 56.7423C56.4156 56.8957 56.4514 57.0465 56.5157 57.1859C56.5799 57.3252 56.6713 57.4504 56.7845 57.5541C56.8976 57.6578 57.0303 57.7379 57.1747 57.7898C57.3192 57.8417 57.4725 57.8643 57.6258 57.8562C57.7775 57.8511 57.9268 57.816 58.065 57.7532C58.2032 57.6903 58.3277 57.6008 58.4313 57.4898C58.535 57.3788 58.6157 57.2485 58.6689 57.1062C58.7222 56.964 58.7469 56.8127 58.7416 56.6609Z" fill="white"/>
<path d="M29.6667 68.9857L41.8997 81.6979M40.2466 70.4714L32.4771 78.7265M67.1925 68.9857L54.9595 81.6979M56.6125 70.4714L64.3821 78.7265" stroke="#ECB732" stroke-width="4.29688" stroke-linecap="round"/>
<path d="M53.4717 40.9198L45.3713 49.0093M51.8186 49.0093L43.7183 40.9198" stroke="#FFC73B" stroke-width="4.29688" stroke-linecap="round"/>
</g>
</g>
<defs>
<linearGradient id="paint0_linear_58_105" x1="2694.71" y1="-2057.77" x2="4899.42" y2="4116.8" gradientUnits="userSpaceOnUse">
<stop stop-color="#52CE63"/>
<stop offset="1" stop-color="#51A256"/>
</linearGradient>
<linearGradient id="paint1_linear_58_105" x1="2160.64" y1="2691.9" x2="-4020.29" y2="4901.95" gradientUnits="userSpaceOnUse">
<stop stop-color="#52CE63"/>
<stop offset="1" stop-color="#51A256"/>
</linearGradient>
<linearGradient id="paint2_linear_58_105" x1="2740.84" y1="339.853" x2="1524.27" y2="10270.4" gradientUnits="userSpaceOnUse">
<stop stop-color="#8AE99C"/>
<stop offset="1" stop-color="#52CE63"/>
</linearGradient>
<linearGradient id="paint3_linear_58_105" x1="8178.83" y1="4616.34" x2="6863.49" y2="26243.7" gradientUnits="userSpaceOnUse">
<stop stop-color="#FFE56C"/>
<stop offset="1" stop-color="#FFC63A"/>
</linearGradient>
</defs>
</svg>
