<svg width="112" height="100" viewBox="0 0 112 100" fill="none" xmlns="http://www.w3.org/2000/svg">
<rect x="0.5" y="0.5" width="110.31" height="99" rx="19.5" fill="#242938"/>
<rect x="0.5" y="0.5" width="110.31" height="99" rx="19.5" stroke="white"/>
<path d="M66.2242 59.5139L64.5202 62.5312C64.2679 62.9776 63.9047 63.3485 63.4671 63.6063C63.0295 63.8642 62.5331 63.9999 62.0277 64H48.9723C48.4669 63.9999 47.9705 63.8642 47.5329 63.6063C47.0953 63.3485 46.7321 62.9776 46.4798 62.5312L44.7754 59.5139H66.2242ZM70.9951 51.0675L67.9904 56.3873H43.0096L40.0049 51.0675H70.9951ZM68.1007 42.808L71 47.9409H40L42.8993 42.808H68.1007ZM62.0273 35C62.5328 35 63.0293 35.1357 63.4669 35.3936C63.9046 35.6515 64.2679 36.0223 64.5202 36.4688L66.3346 39.6814H44.6654L46.4801 36.4688C46.7325 36.0224 47.0957 35.6515 47.5333 35.3937C47.9708 35.1358 48.4673 35.0001 48.9727 35H62.0273Z" fill="#00435B"/>
<path d="M29.6076 34.1617C28.1589 27.112 27.8478 21.7048 28.7844 17.7787C29.3413 15.4435 30.3592 13.5386 31.9077 12.1639C33.5424 10.7129 35.6089 10.0008 37.9312 10.0008C41.7617 10.0008 45.7889 11.754 50.0922 15.0842C51.8479 16.4428 53.6696 18.0801 55.5615 19.9973C55.7124 19.803 55.8824 19.6195 56.0722 19.4496C61.4213 14.6662 65.9248 11.6936 69.7768 10.5479C72.0672 9.86611 74.2175 9.80122 76.1755 10.4627C78.2426 11.1605 79.8895 12.6039 81.0517 14.625C82.9694 17.9608 83.4748 22.344 82.7601 27.7564C82.4687 29.9625 81.9705 32.3653 81.2665 34.9691C81.5321 35.0012 81.7984 35.0605 82.062 35.1481C88.8486 37.4054 93.6546 39.8323 96.5641 42.6064C98.2954 44.2567 99.4257 46.0939 99.8345 48.128C100.266 50.2748 99.8449 52.4278 98.6845 54.4475C96.7703 57.7788 93.2506 60.4056 88.2367 62.4864C86.2238 63.322 83.9456 64.0788 81.4004 64.7595C81.5165 65.0225 81.6069 65.302 81.667 65.5951C83.1157 72.6448 83.4265 78.052 82.4903 81.9781C81.9333 84.3133 80.9151 86.2182 79.3666 87.5929C77.7323 89.0439 75.6654 89.756 73.3434 89.756C69.5126 89.756 65.4857 88.0028 61.1824 84.6726C59.408 83.2994 57.5661 81.6418 55.6523 79.6981C55.4509 80.0142 55.2071 80.3009 54.9278 80.5501C49.5787 85.3341 45.0752 88.306 41.2232 89.4521C38.9328 90.1339 36.7825 90.1988 34.8245 89.5373C32.7574 88.8395 31.1105 87.3961 29.9483 85.375C28.0306 82.0392 27.5252 77.656 28.2399 72.2436C28.542 69.958 29.066 67.4606 29.8106 64.7476C29.5138 64.7175 29.2212 64.6546 28.938 64.5603C22.1514 62.3029 17.3454 59.876 14.4359 57.1019C12.7046 55.4517 11.5743 53.6144 11.1655 51.5803C10.7344 49.4336 11.1551 47.2802 12.3155 45.2604C14.2297 41.9295 17.7494 39.3024 22.7633 37.2219C24.8364 36.3612 27.1904 35.5845 29.8277 34.8881C29.7326 34.6532 29.6589 34.4101 29.6076 34.1617Z" fill="#002B3B"/>
<path d="M76.7648 66.267C77.0862 66.2097 77.4172 66.279 77.6892 66.4604C77.9611 66.6417 78.1532 66.9214 78.2257 67.2413L78.2336 67.2801L78.305 67.6528C80.6196 79.8843 78.9891 86 73.4137 86C67.959 86 61.015 80.7814 52.5818 70.3441C52.4319 70.1586 52.3369 69.9346 52.3074 69.6975C52.2779 69.4604 52.3152 69.2198 52.4149 69.0029C52.5147 68.786 52.673 68.6017 52.8718 68.4707C53.0706 68.3397 53.302 68.2674 53.5397 68.262H53.579L54.0233 68.2652C57.5721 68.2846 61.022 68.1602 64.373 67.8921C68.3284 67.5754 72.459 67.0337 76.7648 66.267ZM38.4756 57.0211L38.497 57.0575L38.7198 57.4483C40.5055 60.5688 42.3659 63.5307 44.301 66.3339C46.5804 69.6347 49.1433 72.9765 51.9898 76.3592C52.2011 76.6102 52.308 76.9335 52.2881 77.2617C52.2682 77.5899 52.1232 77.8978 51.8832 78.1213L51.8512 78.1501L51.5649 78.398C42.1456 86.5105 36.0235 88.13 33.1986 83.2563C30.4333 78.4863 31.4358 69.8126 36.2062 57.2354C36.2906 57.0125 36.4355 56.8179 36.6243 56.6736C36.8131 56.5292 37.0384 56.4409 37.2746 56.4186C37.5108 56.3963 37.7484 56.4409 37.9607 56.5474C38.173 56.6539 38.3513 56.818 38.4756 57.0211ZM81.5444 38.9725L81.583 38.9853L81.9376 39.108C93.5639 43.1735 97.981 47.6411 95.189 52.5108C92.4584 57.2737 84.52 60.7415 71.3737 62.9141C71.1354 62.9535 70.8909 62.9239 70.6688 62.8286C70.4467 62.7334 70.2562 62.5765 70.1196 62.3764C69.9831 62.1762 69.9061 61.9411 69.8977 61.6985C69.8893 61.4559 69.9498 61.216 70.0722 61.0067C71.9551 57.7872 73.651 54.5838 75.1598 51.3965C76.8707 47.7817 78.4764 43.9018 79.977 39.7568C80.086 39.4555 80.3037 39.2064 80.5869 39.059C80.8701 38.9116 81.1981 38.8766 81.5058 38.961L81.5444 38.9725ZM40.4763 36.9257C40.6202 37.0107 40.746 37.1233 40.8466 37.2571C40.9472 37.3909 41.0205 37.5434 41.0625 37.7057C41.1045 37.8681 41.1142 38.0371 41.0911 38.2033C41.0681 38.3694 41.0127 38.5293 40.9281 38.6739C39.0447 41.8932 37.3488 45.0966 35.8402 48.2842C34.1293 51.8987 32.5236 55.7786 31.023 59.9239C30.9116 60.2317 30.6869 60.4847 30.3952 60.6307C30.1034 60.7767 29.7671 60.8044 29.4556 60.7082L29.417 60.6954L29.0624 60.5723C17.4361 56.507 13.019 52.0395 15.811 47.1698C18.5416 42.4069 26.48 38.9391 39.6263 36.7662C39.9195 36.7177 40.2203 36.7742 40.4763 36.9257ZM77.8014 16.9025C80.5667 21.6728 79.5642 30.3465 74.7938 42.9238C74.7094 43.1466 74.5645 43.3412 74.3757 43.4856C74.1869 43.6299 73.9616 43.7183 73.7254 43.7406C73.4892 43.7629 73.2516 43.7182 73.0393 43.6118C72.827 43.5053 72.6487 43.3412 72.5244 43.1381L72.503 43.1017L72.2802 42.7109C70.4945 39.5903 68.6341 36.6285 66.699 33.8253C64.4196 30.5244 61.8566 27.1826 59.0102 23.7999C58.7989 23.5489 58.692 23.2256 58.7119 22.8974C58.7317 22.5692 58.8768 22.2613 59.1167 22.0379L59.1488 22.0091L59.4351 21.7612C68.8544 13.6489 74.9765 12.0293 77.8014 16.9025ZM38.063 14C43.518 14 50.462 19.2185 58.8949 29.6555C59.0448 29.841 59.1398 30.065 59.1693 30.3021C59.1988 30.5392 59.1615 30.7799 59.0618 30.9967C58.962 31.2136 58.8037 31.398 58.6049 31.529C58.4061 31.6599 58.1747 31.7322 57.937 31.7376H57.8977L57.4534 31.7348C53.9049 31.7154 50.4551 31.8398 47.104 32.1079C43.1482 32.4246 39.0175 32.9663 34.7119 33.733C34.3906 33.7902 34.0597 33.7209 33.7878 33.5395C33.5159 33.3581 33.3238 33.0786 33.2514 32.7587L33.2431 32.7195L33.1717 32.3472C30.8569 20.1157 32.4873 14 38.063 14Z" fill="#FF4154"/>
<path d="M49.7971 36H60.8958C61.6932 36 62.4765 36.2068 63.1665 36.5996C63.8566 36.9925 64.4289 37.5574 64.8258 38.2373L70.3987 47.7828C70.7927 48.4575 71 49.222 71 50C71 50.778 70.7927 51.5425 70.3987 52.2172L64.8258 61.7627C64.4289 62.4426 63.8566 63.0075 63.1665 63.4004C62.4765 63.7932 61.6932 64 60.8958 64H49.7971C48.1739 64 46.6748 63.1466 45.8667 61.7627L40.2945 52.2172C39.9005 51.5425 39.6932 50.778 39.6932 50C39.6932 49.222 39.9005 48.4575 40.2945 47.7828L45.8671 38.2373C46.264 37.5573 46.8364 36.9924 47.5265 36.5996C48.2166 36.2067 48.9996 35.9999 49.7971 36ZM59.2044 38.881C60.8283 38.881 62.3284 39.7355 63.1358 41.1203L67.0219 47.7848C67.4151 48.4591 67.622 49.2228 67.622 50C67.622 50.7772 67.4151 51.5409 67.0219 52.2152L63.1358 58.8797C62.7391 59.5601 62.1666 60.1255 61.4762 60.5186C60.7859 60.9118 60.0022 61.1188 59.2044 61.1187H51.4892C49.8653 61.1187 48.3651 60.2645 47.5577 58.8797L43.6717 52.2152C43.2784 51.5409 43.0715 50.7772 43.0715 50C43.0715 49.2228 43.2784 48.4591 43.6717 47.7848L47.5577 41.1203C47.9545 40.44 48.5269 39.8746 49.2172 39.4815C49.9074 39.0883 50.6911 38.8813 51.4888 38.8813L59.2044 38.881ZM57.3812 42.0322H53.3123C52.5152 42.0321 51.7322 42.2387 51.0423 42.6312C50.3524 43.0238 49.78 43.5883 49.383 44.2677L47.3296 47.7807C46.9348 48.4559 46.7271 49.2212 46.7271 50C46.7271 50.7788 46.9348 51.5441 47.3296 52.2193L49.383 55.7326C49.78 56.4121 50.3524 56.9766 51.0423 57.3691C51.7322 57.7616 52.5152 57.9683 53.3123 57.9682H57.3812C59.0037 57.9682 60.5024 57.1154 61.3105 55.7326L63.3639 52.2193C63.7587 51.5441 63.9665 50.7788 63.9665 50C63.9665 49.2212 63.7587 48.4559 63.3639 47.7807L61.3105 44.2674C60.9135 43.5879 60.3412 43.0234 59.6513 42.6309C58.9614 42.2384 58.1783 42.0321 57.3812 42.0322ZM55.6259 45.0479C57.2469 45.0479 58.7446 45.8993 59.5531 47.28L59.8445 47.7776C60.2403 48.4535 60.4486 49.2197 60.4486 49.9997C60.4486 50.7796 60.2403 51.5458 59.8445 52.2217L59.5531 52.7193C59.1558 53.3978 58.5836 53.9614 57.8941 54.3533C57.2046 54.7452 56.4223 54.9515 55.6259 54.9514H55.0677C54.2713 54.9515 53.4889 54.7452 52.7994 54.3533C52.11 53.9614 51.5378 53.3978 51.1405 52.7193L50.8491 52.2217C50.4533 51.5458 50.2449 50.7796 50.2449 49.9997C50.2449 49.2197 50.4533 48.4535 50.8491 47.7776L51.1405 47.28C51.5378 46.6015 52.11 46.0379 52.7994 45.646C53.4889 45.2541 54.2713 45.0479 55.0677 45.0479H55.6259ZM55.3475 48.0191C54.9935 48.019 54.6458 48.1105 54.3391 48.2843C54.0325 48.4581 53.7778 48.7082 53.6006 49.0094C53.4237 49.3104 53.3305 49.652 53.3305 49.9997C53.3305 50.3473 53.4237 50.6889 53.6006 50.9899C53.7776 51.2912 54.0322 51.5414 54.3388 51.7153C54.6453 51.8892 54.993 51.9808 55.347 51.9808C55.7009 51.9808 56.0486 51.8892 56.3552 51.7153C56.6617 51.5414 56.9163 51.2912 57.0933 50.9899C57.2702 50.6889 57.3634 50.3473 57.3634 49.9997C57.3634 49.652 57.2702 49.3104 57.0933 49.0094C56.9162 48.7083 56.6616 48.4584 56.3552 48.2846C56.0488 48.1108 55.7013 48.0192 55.3475 48.0191ZM39 49.9997H42.6274H39Z" fill="#FFD94C"/>
</svg>
