<svg width="40" height="40" viewBox="0 0 40 40" fill="none" xmlns="http://www.w3.org/2000/svg">
<path d="M19.9383 3.97C0.923334 4.36833 -3.03333 29.8833 14.7533 36.0033C15.5833 36.1583 15.8933 35.6383 15.8933 35.2067V32.4067C11.2433 33.4083 10.26 30.2117 10.26 30.2117C9.94795 29.2112 9.28429 28.3575 8.39166 27.8083C6.88833 26.7883 8.51166 26.805 8.51166 26.805C9.04333 26.875 9.5514 27.0678 9.99572 27.3681C10.44 27.6683 10.8084 28.0678 11.0717 28.535C11.5431 29.3557 12.3179 29.9585 13.2293 30.2138C14.1407 30.4691 15.1158 30.3564 15.945 29.9C16.0317 29.0667 16.4033 28.2917 17 27.705C13.2833 27.2883 9.39333 25.8717 9.39333 19.58C9.37032 17.9407 9.9915 16.3578 11.1233 15.1717C10.5998 13.7429 10.6615 12.1652 11.295 10.7817C11.295 10.7817 12.695 10.3483 15.895 12.51C18.6343 11.7666 21.5223 11.7666 24.2617 12.51C27.4417 10.3833 28.8417 10.78 28.8417 10.78C29.45 12.16 29.505 13.7183 28.9967 15.1367C30.128 16.323 30.7486 17.9059 30.725 19.545C30.725 25.855 26.8183 27.255 23.1017 27.6533C24.8317 28.57 24.105 34.4633 24.2083 35.19C24.2083 35.6217 24.5017 36.14 25.3667 35.985C43.1033 29.9183 38.9533 4.36833 19.9383 3.97Z" fill="black"/>
</svg>
