<svg width="40" height="40" viewBox="0 0 40 40" fill="none" xmlns="http://www.w3.org/2000/svg">
<g clip-path="url(#clip0_18_29)">
<path d="M36.25 0.937492H3.75C3.0126 0.929987 2.30233 1.21532 1.77506 1.73088C1.24778 2.24643 0.946566 2.95011 0.9375 3.68749V36.3187C0.948206 37.055 1.25014 37.7571 1.77724 38.2713C2.30434 38.7855 3.01367 39.07 3.75 39.0625H36.25C36.9874 39.0683 37.6972 38.782 38.2242 38.2662C38.7512 37.7503 39.0526 37.0468 39.0625 36.3094V3.67812C39.0493 2.94289 38.7465 2.24258 38.2199 1.72938C37.6932 1.21619 36.9853 0.93161 36.25 0.937492Z" fill="#0076B2"/>
<path d="M6.58125 15.2281H12.2406V33.4375H6.58125V15.2281ZM9.4125 6.16562C10.0616 6.16562 10.6961 6.35814 11.2358 6.71883C11.7755 7.07951 12.196 7.59216 12.4443 8.19191C12.6925 8.79166 12.7573 9.45157 12.6305 10.0882C12.5036 10.7247 12.1908 11.3094 11.7316 11.7682C11.2724 12.2269 10.6874 12.5392 10.0507 12.6655C9.41402 12.7917 8.75417 12.7263 8.15465 12.4774C7.55514 12.2286 7.04289 11.8076 6.68272 11.2676C6.32255 10.7275 6.13063 10.0928 6.13125 9.44374C6.13208 8.57404 6.47815 7.74025 7.09341 7.12557C7.70867 6.51089 8.5428 6.16562 9.4125 6.16562ZM15.7906 15.2281H21.2156V17.7281H21.2906C22.0469 16.2969 23.8906 14.7875 26.6438 14.7875C32.375 14.775 33.4375 18.5469 33.4375 23.4375V33.4375H27.7781V24.5781C27.7781 22.4687 27.7406 19.7531 24.8375 19.7531C21.9344 19.7531 21.4406 22.0531 21.4406 24.4406V33.4375H15.7906V15.2281Z" fill="white"/>
</g>
<defs>
<clipPath id="clip0_18_29">
<rect width="40" height="40" fill="white"/>
</clipPath>
</defs>
</svg>
