<svg width="40" height="40" viewBox="0 0 40 40" fill="none" xmlns="http://www.w3.org/2000/svg">
<path d="M6.66666 33.3333C5.74999 33.3333 4.96555 33.0072 4.31333 32.355C3.66111 31.7028 3.33444 30.9178 3.33333 30V9.99999C3.33333 9.08332 3.66 8.29888 4.31333 7.64666C4.96666 6.99443 5.75111 6.66777 6.66666 6.66666H33.3333C34.25 6.66666 35.035 6.99332 35.6883 7.64666C36.3417 8.29999 36.6678 9.08443 36.6667 9.99999V30C36.6667 30.9167 36.3405 31.7017 35.6883 32.355C35.0361 33.0083 34.2511 33.3344 33.3333 33.3333H6.66666ZM20 21.6667L33.3333 13.3333V9.99999L20 18.3333L6.66666 9.99999V13.3333L20 21.6667Z" fill="#FF3434"/>
</svg>
