<svg width="40" height="40" viewBox="0 0 40 40" fill="none" xmlns="http://www.w3.org/2000/svg">
<path d="M6.66671 33.3333C5.75004 33.3333 4.9656 33.0072 4.31337 32.355C3.66115 31.7028 3.33449 30.9178 3.33337 30V9.99999C3.33337 9.08332 3.66004 8.29888 4.31337 7.64666C4.96671 6.99443 5.75115 6.66777 6.66671 6.66666H33.3334C34.25 6.66666 35.035 6.99332 35.6884 7.64666C36.3417 8.29999 36.6678 9.08443 36.6667 9.99999V30C36.6667 30.9167 36.3406 31.7017 35.6884 32.355C35.0362 33.0083 34.2512 33.3344 33.3334 33.3333H6.66671ZM20 21.6667L33.3334 13.3333V9.99999L20 18.3333L6.66671 9.99999V13.3333L20 21.6667Z" fill="#E53E3E"/>
</svg>
